<svg xmlns="http://www.w3.org/2000/svg" viewBox="0 30 150 106" width="150" height="106">
  <defs/>
  
  <!-- Temple Roof (Triangle) -->
  <path d="M 0 55 L 75 35 L 150 55 Z" fill="#000000" stroke="#000000" stroke-width="3"/>
  
  <!-- Original RIP text, repositioned -->
  <g fill="#000000" transform="translate(11, 50)">
    <!-- R -->
    <path d="M0 43.60L2.50 43.60L2.50 21.10L0 21.10L0 12.90L22.95 12.90Q29.40 12.90 32.80 15.55Q36.20 18.20 36.20 24.15Q36.20 27.50 34.85 29.95Q33.50 32.40 31 33.35L31.05 33.85Q35.85 34.60 35.85 39.75L35.85 43.60L38.20 43.60L38.20 51.80L22.35 51.80L22.35 40.05Q22.35 38.10 21.78 37.10Q21.20 36.10 19.98 35.75Q18.75 35.40 16.50 35.40L16.50 43.60L19.80 43.60L19.80 51.80L0 51.80L0 43.60M19.20 29.30Q20.65 29.30 21.38 28.53Q22.10 27.75 22.10 26.10L22.10 24.30Q22.10 22.65 21.38 21.88Q20.65 21.10 19.20 21.10L16.50 21.10L16.50 29.30L19.20 29.30Z"/>
    <!-- I -->
    <path d="M55 51.80L55 43.60L57.50 43.60L57.50 21.10L55 21.10L55 12.90L74 12.90L74 21.10L71.50 21.10L71.50 43.60L74 43.60L74 51.80L55 51.80Z"/>
    <!-- P -->
    <path d="M91 43.60L93.50 43.60L93.50 21.10L91 21.10L91 12.90L112.95 12.90Q119.40 12.90 122.80 15.68Q126.20 18.45 126.20 24.65Q126.20 30.85 122.80 33.63Q119.40 36.40 112.95 36.40L107.50 36.40L107.50 43.60L112.30 43.60L112.30 51.80L91 51.80L91 43.60M109.20 29.30Q112.10 29.30 112.10 26.10L112.10 24.30Q112.10 22.65 111.38 21.88Q110.65 21.10 109.20 21.10L107.50 21.10L107.50 29.30L109.20 29.30Z"/>
  </g>
  
  <!-- First rectangle/step -->
  <rect x="10" y="110" width="130" height="8" fill="#000000" stroke="#000000" stroke-width="3"/>
  
  <!-- Second larger rectangle/step -->
  <rect x="0" y="123" width="150" height="13" fill="#000000" stroke="#000000" stroke-width="3"/>
</svg>