<svg xmlns="http://www.w3.org/2000/svg" viewBox="0 20 400 146" width="400" height="146">
  <defs/>
  
  <!-- Temple Roof (Triangle) -->
  <path d="M 0 55 L 75 35 L 150 55 Z" fill="#000000" stroke="#000000" stroke-width="3"/>
  
  <!-- Original RIP text, repositioned -->
  <g fill="#000000" transform="translate(11, 50)">
    <!-- R -->
    <path d="M0 43.60L2.50 43.60L2.50 21.10L0 21.10L0 12.90L22.95 12.90Q29.40 12.90 32.80 15.55Q36.20 18.20 36.20 24.15Q36.20 27.50 34.85 29.95Q33.50 32.40 31 33.35L31.05 33.85Q35.85 34.60 35.85 39.75L35.85 43.60L38.20 43.60L38.20 51.80L22.35 51.80L22.35 40.05Q22.35 38.10 21.78 37.10Q21.20 36.10 19.98 35.75Q18.75 35.40 16.50 35.40L16.50 43.60L19.80 43.60L19.80 51.80L0 51.80L0 43.60M19.20 29.30Q20.65 29.30 21.38 28.53Q22.10 27.75 22.10 26.10L22.10 24.30Q22.10 22.65 21.38 21.88Q20.65 21.10 19.20 21.10L16.50 21.10L16.50 29.30L19.20 29.30Z"/>
    <!-- I -->
    <path d="M55 51.80L55 43.60L57.50 43.60L57.50 21.10L55 21.10L55 12.90L74 12.90L74 21.10L71.50 21.10L71.50 43.60L74 43.60L74 51.80L55 51.80Z"/>
    <!-- P -->
    <path d="M91 43.60L93.50 43.60L93.50 21.10L91 21.10L91 12.90L112.95 12.90Q119.40 12.90 122.80 15.68Q126.20 18.45 126.20 24.65Q126.20 30.85 122.80 33.63Q119.40 36.40 112.95 36.40L107.50 36.40L107.50 43.60L112.30 43.60L112.30 51.80L91 51.80L91 43.60M109.20 29.30Q112.10 29.30 112.10 26.10L112.10 24.30Q112.10 22.65 111.38 21.88Q110.65 21.10 109.20 21.10L107.50 21.10L107.50 29.30L109.20 29.30Z"/>
    <!-- "oulitique" text -->
    <path d="M157.70 52.50Q150.60 52.50 146.60 48.78Q142.60 45.05 142.60 37.90Q142.60 30.75 146.60 27.03Q150.60 23.30 157.70 23.30Q164.90 23.30 168.85 27.08Q172.80 30.85 172.80 37.90Q172.80 45.05 168.80 48.78Q164.80 52.50 157.70 52.50M157.70 43.60Q159.15 43.60 159.88 42.83Q160.60 42.05 160.60 40.40L160.60 35.40Q160.60 33.75 159.88 32.98Q159.15 32.20 157.70 32.20Q156.25 32.20 155.53 32.98Q154.80 33.75 154.80 35.40L154.80 40.40Q154.80 42.05 155.53 42.83Q156.25 43.60 157.70 43.60ZM207.30 43.60L207.30 51.80L193.60 51.80L193.60 47.90Q190 52.50 184.60 52.50Q180.45 52.50 178.38 49.90Q176.30 47.30 176.30 42.75L176.30 32.20L174.10 32.20L174.10 24.00L187.80 24.00L187.80 40.40Q187.80 42.05 188.53 42.83Q189.25 43.60 190.70 43.60Q192.15 43.60 192.88 42.83Q193.60 42.05 193.60 40.40L193.60 32.20L190.90 32.20L190.90 24.00L205.10 24.00L205.10 43.60L207.30 43.60ZM208.70 51.85L208.70 43.60L210.90 43.60L210.90 21.10L208.70 21.10L208.70 12.90L222.40 12.90L222.40 43.60L224.60 43.60L224.60 51.85L208.70 51.85ZM228.60 21.25L228.60 12.90L238.80 12.90L238.80 21.25L228.60 21.25M226.20 51.80L226.20 43.60L228.40 43.60L228.40 32.20L226.20 32.20L226.20 24.00L239.90 24.00L239.90 43.60L242.10 43.60L242.10 51.80L226.20 51.80ZM255.85 52.50Q250.55 52.50 247.88 49.93Q245.20 47.35 245.20 41.25L245.20 32.20L243.00 32.20L243.00 24.00Q244.90 24.00 245.85 23.03Q246.80 22.05 246.80 20.35L246.80 18.10L257.40 18.10L257.40 24.00L264.15 24.00L264.15 32.20L257.40 32.20L257.40 40.40Q257.40 42.05 258.13 42.83Q258.85 43.60 260.30 43.60Q262.20 43.60 264.45 43.15L264.45 51.00Q263.05 51.55 260.68 52.03Q258.30 52.50 255.85 52.50ZM268.45 21.25L268.45 12.90L278.65 12.90L278.65 21.25L268.45 21.25M266.05 51.80L266.05 43.60L268.25 43.60L268.25 32.20L266.05 32.20L266.05 24.00L279.75 24.00L279.75 43.60L281.95 43.60L281.95 51.80L266.05 51.80ZM297.50 54.70L300.95 54.70L300.95 48.40Q299.70 50.00 297.73 51.25Q295.75 52.50 293.20 52.50Q288.10 52.50 285.53 48.70Q282.95 44.90 282.95 37.90Q282.95 30.90 285.53 27.10Q288.10 23.30 293.20 23.30Q295.75 23.30 297.73 24.55Q299.70 25.80 300.95 27.40L300.95 24.00L314.65 24.00L314.65 32.20L312.45 32.20L312.45 62.90L297.50 62.90L297.50 54.70M298.05 43.60Q299.50 43.60 300.23 42.83Q300.95 42.05 300.95 40.40L300.95 35.40Q300.95 33.75 300.23 32.98Q299.50 32.20 298.05 32.20Q296.60 32.20 295.88 32.98Q295.15 33.75 295.15 35.40L295.15 40.40Q295.15 42.05 295.88 42.83Q296.60 43.60 298.05 43.60ZM348.85 43.60L348.85 51.80L335.15 51.80L335.15 47.90Q331.55 52.50 326.15 52.50Q322.00 52.50 319.93 49.90Q317.85 47.30 317.85 42.75L317.85 32.20L315.65 32.20L315.65 24.00L329.35 24.00L329.35 40.40Q329.35 42.05 330.08 42.83Q330.80 43.60 332.25 43.60Q333.70 43.60 334.43 42.83Q335.15 42.05 335.15 40.40L335.15 32.20L332.45 32.20L332.45 24.00L346.65 24.00L346.65 43.60L348.85 43.60ZM365.15 52.50Q358.05 52.50 354.05 48.78Q350.05 45.05 350.05 37.90Q350.05 30.75 354.05 27.03Q358.05 23.30 365.15 23.30Q372.20 23.30 375.33 26.98Q378.45 30.65 378.45 36.10L378.45 39.70L362.25 39.70L362.25 40Q362.25 41.85 363.35 42.73Q364.45 43.60 367.00 43.60Q370.05 43.60 372.80 43.15Q375.55 42.70 377.60 42L377.60 50.00Q375.85 50.95 372.48 51.73Q369.10 52.50 365.15 52.50M368.05 34.20L368.05 33.60Q368.05 31.90 367.33 31.15Q366.60 30.40 365.15 30.40Q363.70 30.40 362.98 31.18Q362.25 31.95 362.25 33.60L362.25 34.20L368.05 34.20Z"/>
  </g>
  
  <!-- First rectangle/step -->
  <rect x="10" y="110" width="130" height="8" fill="#000000" stroke="#000000" stroke-width="3"/>
  
  <!-- Second larger rectangle/step -->
  <rect x="0" y="123" width="150" height="13" fill="#000000" stroke="#000000" stroke-width="3"/>
</svg>